<?xml version="1.0" encoding="iso-8859-1"?>
<!-- Generator: Adobe Illustrator 18.0.0, SVG Export Plug-In . SVG Version: 6.00 Build 0)  -->
<!DOCTYPE svg PUBLIC "-//W3C//DTD SVG 1.1//EN" "http://www.w3.org/Graphics/SVG/1.1/DTD/svg11.dtd">
<svg version="1.1" id="Capa_1" xmlns="http://www.w3.org/2000/svg" xmlns:xlink="http://www.w3.org/1999/xlink" x="0px" y="0px"
	 viewBox="0 0 297.014 297.014" style="enable-background:new 0 0 297.014 297.014;" xml:space="preserve">
<path d="M0,246.363c0,5.459,4.424,9.885,9.883,9.885h277.248c5.457,0,9.883-4.426,9.883-9.885V50.65
	c0-5.459-4.426-9.885-9.883-9.885H9.883C4.424,40.766,0,45.191,0,50.65V246.363z M19.767,81.54V60.534h257.479V81.54H19.767z
	 M67.951,171.242h-12.85v-69.935h12.85V171.242z M77.836,191.011c5.457,0,9.885-4.427,9.885-9.885v-79.818h18.283V236.48H71.412
	v-45.469H77.836z M125.773,101.308h18.285v79.818c0,5.458,4.426,9.885,9.883,9.885h6.426v45.469h-34.594V101.308z M176.676,171.242
	h-12.85v-69.935h12.85V171.242z M180.135,191.011h6.426c5.457,0,9.883-4.427,9.883-9.885v-79.818h12.85v79.818
	c0,5.458,4.426,9.885,9.885,9.885h6.424v45.469h-45.467V191.011z M241.91,171.242h-12.848v-69.935h12.848V171.242z M19.767,101.308
	h15.566v79.818c0,5.458,4.426,9.885,9.883,9.885h6.426v45.469H19.767V101.308z M277.246,236.48h-31.875v-45.469h6.424
	c5.457,0,9.883-4.427,9.883-9.885v-79.818h15.568V236.48z"/>
<g>
</g>
<g>
</g>
<g>
</g>
<g>
</g>
<g>
</g>
<g>
</g>
<g>
</g>
<g>
</g>
<g>
</g>
<g>
</g>
<g>
</g>
<g>
</g>
<g>
</g>
<g>
</g>
<g>
</g>
</svg>
